<svg width="260" height="100" viewBox="0 0 2600 664" fill="none" xmlns="http://www.w3.org/2000/svg">
<path d="M707.877 243.488H766.741V274.472H768.105C774.908 262.832 784.709 253.231 796.484 246.67C808.26 240.109 821.579 236.828 835.053 237.17C848.472 236.957 861.661 240.671 872.998 247.854C884.335 255.038 893.327 265.379 898.869 277.606H899.728C915.493 252.334 939.745 237.17 968.95 237.17C1017.46 237.17 1044.74 268.66 1044.74 319.003V474.076H983.603V329.112C983.603 303.081 970.567 289.586 948.234 289.586C922.617 289.586 906.903 309.349 906.903 340.131V474.076H845.765V329.112C845.765 303.081 832.729 289.586 810.396 289.586C785.689 289.586 769.015 309.349 769.015 340.131V474.076H707.928L707.877 243.488Z" fill="#4075FF"/>
<path d="M1071.27 358.984C1071.27 290.242 1120.23 237.17 1191.67 237.17C1263.12 237.17 1312.08 290.242 1312.08 358.984C1312.08 427.726 1263.12 480.798 1191.67 480.798C1120.23 480.798 1071.27 427.776 1071.27 358.984ZM1250.08 358.984C1250.08 314.049 1228.96 283.469 1191.67 283.469C1154.38 283.469 1133.26 313.797 1133.26 358.984C1133.26 404.171 1153.93 434.044 1191.67 434.044C1229.42 434.044 1250.18 403.969 1250.18 358.984H1250.08Z" fill="#4075FF"/>
<path d="M1329.26 358.984C1329.26 287.058 1370.13 237.17 1427.63 237.17C1460.02 237.17 1480.23 252.03 1492.81 271.338H1494.13V152.708H1555.26V474.076H1496.4V443.748H1495.69C1482.2 465.786 1459.31 480.596 1426.98 480.596C1368.77 480.747 1329.26 433.639 1329.26 358.984ZM1495.49 360.349C1495.49 316.273 1481.14 286.653 1442.03 286.653C1408.33 286.653 1391.25 316.273 1391.25 358.984C1391.25 403.514 1408.79 429.747 1440.21 429.747C1476.64 429.596 1495.69 402.605 1495.69 360.349H1495.49Z" fill="#4075FF"/>
<path d="M1583.56 358.529C1583.56 290.242 1629.84 237.22 1697.25 237.22C1771.37 237.22 1810.88 293.882 1810.88 376.119H1643.74C1648.23 411.501 1668.04 433.689 1702.6 433.689C1726.45 433.689 1740.34 422.873 1747.12 405.334H1807.29C1798.75 446.275 1762.37 480.849 1703.06 480.849C1626.66 480.747 1583.56 427.321 1583.56 358.529ZM1644.65 333.813H1747.12C1745.3 304.597 1726 284.379 1698.1 284.379C1665.77 284.379 1650.05 303.839 1644.65 333.813Z" fill="#4075FF"/>
<path d="M1898.04 280.335H1899.4C1913.35 254.254 1929.06 240.758 1955.99 240.758C1960.86 240.469 1965.75 241.086 1970.39 242.578V296.054H1969.03C1929.06 292.011 1900.31 313.139 1900.31 361.763V474.125H1839.28V243.538H1898.14L1898.04 280.335Z" fill="#4075FF"/>
<path d="M2056.54 274.927H2057.91C2073.62 250.211 2094.74 237.17 2126.17 237.17C2173.82 237.17 2205.7 273.158 2205.7 323.501V474.076H2144.61V332.549C2144.61 307.832 2130.21 290.293 2104.64 290.293C2077.66 290.293 2057.91 311.876 2057.91 343.315V474.126H1996.77V243.538H2056.54V274.927Z" fill="#4075FF"/>
<path d="M2226.46 243.488H2257.94V222.966C2257.94 166.76 2301.5 147.148 2360.36 153.264V200.474C2331.61 199.109 2319.03 202.748 2319.03 226.555V243.639H2448.88V285.895H2319.28V474.227H2258.19V285.895H2226.72L2226.46 243.488ZM2387.8 152.507H2448.88V207.297H2387.8V152.507ZM2387.8 243.488H2448.88V474.075H2387.8V243.488Z" fill="#4075FF"/>
<path fill-rule="evenodd" clip-rule="evenodd" d="M326.959 268.353L500.335 181.665V271.916L326.96 358.603L500.335 444.103V531.979L326.959 446.478L150.02 531.979V444.103L326.958 358.603L150.02 271.916V181.665L326.959 268.353Z" fill="#4075FF"/>
</svg>
